<mxfile host="app.diagrams.net" modified="2024-03-11T15:56:06.345Z" agent="Mozilla/5.0 (Windows NT 10.0; Win64; x64) AppleWebKit/537.36 (KHTML, like Gecko) Chrome/122.0.0.0 Safari/537.36" version="24.0.2" etag="jr4VIjHNHPWcPAO_1UR9" type="github">
  <diagram name="Trang-1" id="XvSelIh4EvXVkAUtxh8p">
    <mxGraphModel>
      <root>
        <mxCell id="0" />
        <mxCell id="1" parent="0" />
      </root>
    </mxGraphModel>
  </diagram>
</mxfile>
